<?xml version="1.0" encoding="UTF-8" standalone="no"?>
<!DOCTYPE svg PUBLIC "-//W3C//DTD SVG 1.0//EN" "http://www.w3.org/TR/2001/REC-SVG-20010904/DTD/svg10.dtd">
<svg xmlns="http://www.w3.org/2000/svg" version="1.0" viewBox="0.00 0.00 629.00 178.00" width="629.00" height="178.00">
<g stroke-width="2.00" fill="none" stroke-linecap="butt">
<path stroke="#dab86e" vector-effect="non-scaling-stroke" d="
  M 122.86 166.98
  C 136.64 161.73 148.07 154.08 157.14 144.01
  C 164.95 135.34 170.55 125.10 173.94 113.30
  C 174.88 110.03 175.99 105.58 176.23 102.36
  C 176.80 94.67 177.25 85.82 175.66 78.25
  C 174.98 75.04 174.49 72.87 174.19 71.76
  C 167.15 45.96 149.10 27.48 124.65 17.74
  C 118.11 15.13 111.07 14.69 104.22 13.45
  C 98.79 12.47 94.55 12.47 89.49 13.47
  C 85.36 14.29 80.65 14.36 76.39 15.86
  C 74.79 16.43 73.15 16.38 71.70 16.91
  C 62.34 20.34 54.53 24.40 48.26 29.08
  C 38.75 36.17 30.07 46.93 24.69 57.90
  C 21.60 64.20 20.33 69.80 18.67 75.86
  C 18.16 77.73 17.84 79.69 17.71 81.76
  C 17.45 85.74 16.58 89.46 16.98 93.42
  C 17.42 97.81 17.50 102.33 18.38 106.48
  C 19.74 112.94 21.25 118.24 22.90 122.37
  C 27.95 135.02 36.29 145.75 47.90 154.57
  C 52.41 158.00 57.94 161.25 64.51 164.33
  C 65.13 164.62 66.33 165.00 68.12 165.49
  C 69.41 165.84 70.57 166.38 71.61 167.11"
/>
<path stroke="#dab86e" vector-effect="non-scaling-stroke" d="
  M 275.98 48.37
  C 275.31 47.98 275.48 47.66 276.51 47.39
  C 276.80 47.32 277.13 47.28 277.50 47.28
  C 289.02 47.33 300.73 47.37 312.64 47.38
  C 313.87 47.38 314.49 46.76 314.50 45.52
  L 314.50 39.25
  C 314.50 37.98 313.87 37.41 312.61 37.54
  C 310.60 37.74 308.40 37.86 306.00 37.89
  C 278.96 38.23 251.92 38.13 224.88 37.58
  C 222.59 37.53 220.82 37.49 219.57 37.44
  C 218.35 37.40 217.73 37.99 217.72 39.21
  L 217.63 45.79
  C 217.62 46.99 218.21 47.58 219.41 47.56
  C 230.70 47.35 242.07 47.26 253.51 47.29
  C 257.44 47.30 256.85 49.19 257.52 51.93
  C 257.79 53.01 257.61 53.29 256.99 52.76"
/>
<path stroke="#dab86e" vector-effect="non-scaling-stroke" d="
  M 357.00 37.15
  L 337.74 36.66"
/>
<path stroke="#dab86e" vector-effect="non-scaling-stroke" d="
  M 338.46 135.98
  C 338.20 135.67 338.07 135.35 338.07 135.00
  C 338.06 103.43 338.04 71.86 338.03 40.30"
/>
<path stroke="#dab86e" vector-effect="non-scaling-stroke" d="
  M 604.96 81.30
  L 555.13 81.29
  C 553.18 81.29 552.23 80.31 552.26 78.36
  C 552.43 69.43 552.49 60.60 552.44 51.89
  C 552.44 50.51 552.83 49.59 553.44 48.40
  C 553.58 48.13 553.79 47.96 554.08 47.87
  C 555.08 47.60 555.89 47.46 556.50 47.45
  C 573.58 47.31 591.11 47.28 609.10 47.36
  C 610.08 47.36 610.88 46.56 610.87 45.58
  L 610.83 38.23
  C 610.83 37.79 610.40 37.49 609.98 37.63
  L 609.31 37.86
  C 609.14 37.92 608.97 37.95 608.80 37.94
  L 535.64 37.87
  C 534.62 37.87 533.87 38.84 534.14 39.83
  C 534.73 42.03 535.07 44.21 535.02 46.64
  C 534.54 69.48 534.47 92.32 534.81 115.17
  C 534.85 117.97 534.53 120.69 534.32 123.49
  C 534.17 125.69 534.27 129.87 534.63 136.02"
/>
<path stroke="#dab86e" vector-effect="non-scaling-stroke" d="
  M 605.21 89.01
  C 605.24 90.24 604.75 90.85 603.75 90.85
  C 587.38 90.82 571.01 90.83 554.65 90.90
  C 553.35 90.91 552.31 91.96 552.32 93.26
  C 552.39 102.87 552.43 112.65 552.43 122.58
  C 552.43 125.28 553.62 126.24 556.24 125.95"
/>
<path stroke="#dab86e" vector-effect="non-scaling-stroke" d="
  M 610.37 125.23
  C 611.32 128.84 611.39 132.43 610.59 136.02"
/>
<path stroke="#dab86e" vector-effect="non-scaling-stroke" d="
  M 435.70 135.95
  C 442.35 135.40 449.41 135.45 455.89 133.93
  C 457.67 133.52 459.46 133.18 461.27 132.92
  C 464.47 132.46 467.06 131.92 469.04 131.30
  C 477.22 128.76 483.49 126.37 491.62 120.80
  C 503.04 112.98 507.60 102.28 508.97 88.75
  C 509.32 85.28 508.38 82.28 508.26 79.41
  C 508.14 76.46 507.25 74.36 506.49 71.95
  C 503.58 62.72 494.76 54.58 486.86 49.73
  C 484.92 48.55 482.37 47.50 480.17 46.33
  C 477.48 44.90 474.80 44.30 471.99 43.25
  C 470.61 42.74 469.33 42.61 467.91 42.39
  C 465.54 42.01 463.83 40.60 461.23 40.33
  C 458.89 40.09 457.10 38.87 454.67 38.79
  C 448.03 38.58 441.19 38.04 434.76 38.06
  C 420.01 38.09 405.09 38.13 390.00 38.18
  C 389.52 38.19 389.14 38.57 389.14 39.04
  L 389.11 136.01"
/>
<path stroke="#634c1d" vector-effect="non-scaling-stroke" d="
  M 96.50 64.28
  L 84.58 57.20
  C 84.12 56.93 83.84 56.43 83.83 55.89
  L 83.71 43.50
  C 83.71 43.25 83.50 43.04 83.25 43.04
  L 67.31 42.90
  C 66.96 42.90 66.68 43.18 66.67 43.53
  L 66.50 55.93
  C 66.49 56.41 66.25 56.85 65.85 57.11
  C 61.59 59.86 57.39 62.49 53.25 65.00
  C 51.02 66.35 50.06 68.35 50.36 70.99
  C 50.41 71.36 50.61 71.54 50.98 71.54
  L 146.04 71.92
  C 146.35 71.93 146.50 71.77 146.50 71.46
  L 146.81 43.51
  C 146.82 43.21 146.57 42.96 146.26 42.96
  L 97.73 42.97
  C 97.43 42.97 97.18 43.22 97.18 43.52
  L 96.98 64.02
  C 96.98 64.26 96.71 64.40 96.50 64.28"
/>
<path stroke="#634c1d" vector-effect="non-scaling-stroke" d="
  M 146.8936 89.5886
  C 146.89 89.35 146.70 89.16 146.4651 89.1571
  L 50.8057 88.8232
  C 50.57 88.82 50.38 89.01 50.3742 89.2517
  L 50.2064 137.3114
  C 50.21 137.55 50.40 137.74 50.6349 137.7429
  L 146.2943 138.0768
  C 146.53 138.08 146.72 137.89 146.7258 137.6483
  L 146.8936 89.5886"
/>
<path stroke="#dab86e" vector-effect="non-scaling-stroke" d="
  M 451.64 49.24
  C 447.00 48.65 442.34 47.70 437.76 47.62
  C 427.79 47.45 417.93 47.42 408.18 47.54
  C 407.39 47.55 406.75 48.20 406.75 48.99
  L 406.75 123.23
  C 406.75 124.82 408.03 126.10 409.61 126.10
  C 417.42 126.12 425.15 126.13 432.80 126.14
  C 438.43 126.14 443.93 125.51 449.53 125.00
  C 452.88 124.70 455.97 123.76 459.24 122.99
  C 462.02 122.34 464.38 121.58 466.32 120.70
  C 479.34 114.79 488.56 106.63 490.34 91.64
  C 491.83 79.03 487.02 66.15 476.69 58.79
  C 469.44 53.62 461.09 50.44 451.64 49.24"
/>
<path stroke="#634c1d" vector-effect="non-scaling-stroke" d="
  M 54.84 68.92
  L 95.01 69.00
  C 95.13 69.00 95.24 68.95 95.32 68.87
  C 95.54 68.64 95.52 68.44 95.27 68.26
  C 90.72 65.00 86.21 61.85 81.75 58.81
  C 81.17 58.42 80.82 57.76 80.81 57.05
  L 80.76 46.74
  C 80.76 46.25 80.36 45.85 79.87 45.84
  L 70.22 45.74
  C 69.92 45.73 69.68 45.97 69.67 46.27
  L 69.43 56.98
  C 69.41 57.94 68.89 58.82 68.06 59.30
  C 64.52 61.35 56.48 65.44 54.62 68.51
  C 54.45 68.78 54.53 68.91 54.84 68.92"
/>
<path stroke="#634c1d" vector-effect="non-scaling-stroke" d="
  M 100.79 45.81
  C 100.46 45.81 100.20 46.07 100.20 46.40
  L 100.19 55.18
  C 100.19 55.51 100.45 55.77 100.78 55.77
  L 142.82 55.82
  C 143.14 55.82 143.40 55.57 143.41 55.25
  L 143.77 46.44
  C 143.79 46.11 143.52 45.83 143.19 45.83
  L 100.79 45.81"
/>
<path stroke="#634c1d" vector-effect="non-scaling-stroke" d="
  M 143.87 59.70
  C 143.87 59.23 143.49 58.85 143.02 58.85
  L 100.82 58.85
  C 100.35 58.85 99.97 59.23 99.97 59.70
  L 99.97 68.14
  C 99.97 68.61 100.35 68.99 100.82 68.99
  L 143.02 68.99
  C 143.49 68.99 143.87 68.61 143.87 68.14
  L 143.87 59.70"
/>
<path stroke="#634c1d" vector-effect="non-scaling-stroke" d="
  M 96.8003 92.5479
  C 96.80 92.21 96.53 91.94 96.1914 91.9369
  L 53.9715 91.8632
  C 53.63 91.86 53.36 92.14 53.3604 92.4721
  L 53.3397 104.3521
  C 53.34 104.69 53.61 104.96 53.9486 104.9631
  L 96.1685 105.0368
  C 96.51 105.04 96.78 104.76 96.7796 104.4279
  L 96.8003 92.5479"
/>
<path stroke="#634c1d" vector-effect="non-scaling-stroke" d="
  M 120.3670 92.3578
  C 120.37 92.15 120.20 91.98 119.9876 91.9771
  L 100.4076 91.9429
  C 100.20 91.94 100.03 92.11 100.0270 92.3223
  L 99.9530 134.6822
  C 99.95 134.89 100.12 135.06 100.3324 135.0629
  L 119.9124 135.0971
  C 120.12 135.10 120.29 134.93 120.2930 134.7177
  L 120.3670 92.3578"
/>
<path stroke="#634c1d" vector-effect="non-scaling-stroke" d="
  M 143.8870 92.3778
  C 143.89 92.12 143.68 91.92 143.4278 91.9170
  L 123.9478 91.8830
  C 123.69 91.88 123.49 92.09 123.4870 92.3422
  L 123.4130 134.7222
  C 123.41 134.98 123.62 135.18 123.8722 135.1830
  L 143.3522 135.2170
  C 143.61 135.22 143.81 135.01 143.8130 134.7578
  L 143.8870 92.3778"
/>
<path stroke="#634c1d" vector-effect="non-scaling-stroke" d="
  M 96.8998 108.8519
  C 96.90 108.50 96.62 108.22 96.2742 108.2176
  L 54.0952 107.9231
  C 53.75 107.92 53.46 108.20 53.4609 108.5487
  L 53.2802 134.4281
  C 53.28 134.78 53.56 135.06 53.9058 135.0624
  L 96.0848 135.3569
  C 96.43 135.36 96.72 135.08 96.7191 134.7313
  L 96.8998 108.8519"
/>
<path stroke="#634c1d" vector-effect="non-scaling-stroke" d="
  M 91.8535 113.6043
  C 91.85 113.46 91.74 113.34 91.5962 113.3416
  L 58.9180 112.9993
  C 58.77 113.00 58.66 113.11 58.6553 113.2566
  L 58.4865 129.3757
  C 58.49 129.52 58.60 129.64 58.7438 129.6384
  L 91.4220 129.9807
  C 91.57 129.98 91.68 129.87 91.6847 129.7234
  L 91.8535 113.6043"
/>
<path stroke="#634c1d" vector-effect="non-scaling-stroke" d="
  M 88.8270 116.6379
  C 88.83 116.28 88.54 115.99 88.1792 115.9856
  L 62.0594 115.8944
  C 61.70 115.89 61.41 116.18 61.4071 116.5422
  L 61.3730 126.3021
  C 61.37 126.66 61.66 126.95 62.0208 126.9544
  L 88.1406 127.0456
  C 88.50 127.05 88.79 126.76 88.7929 126.3978
  L 88.8270 116.6379"
/>
</g>
<path fill="#efd8a3" d="
  M 122.86 166.98
  C 136.64 161.73 148.07 154.08 157.14 144.01
  C 164.95 135.34 170.55 125.10 173.94 113.30
  C 174.88 110.03 175.99 105.58 176.23 102.36
  C 176.80 94.67 177.25 85.82 175.66 78.25
  C 174.98 75.04 174.49 72.87 174.19 71.76
  C 167.15 45.96 149.10 27.48 124.65 17.74
  C 118.11 15.13 111.07 14.69 104.22 13.45
  C 98.79 12.47 94.55 12.47 89.49 13.47
  C 85.36 14.29 80.65 14.36 76.39 15.86
  C 74.79 16.43 73.15 16.38 71.70 16.91
  C 62.34 20.34 54.53 24.40 48.26 29.08
  C 38.75 36.17 30.07 46.93 24.69 57.90
  C 21.60 64.20 20.33 69.80 18.67 75.86
  C 18.16 77.73 17.84 79.69 17.71 81.76
  C 17.45 85.74 16.58 89.46 16.98 93.42
  C 17.42 97.81 17.50 102.33 18.38 106.48
  C 19.74 112.94 21.25 118.24 22.90 122.37
  C 27.95 135.02 36.29 145.75 47.90 154.57
  C 52.41 158.00 57.94 161.25 64.51 164.33
  C 65.13 164.62 66.33 165.00 68.12 165.49
  C 69.41 165.84 70.57 166.38 71.61 167.11
  C 69.64 166.90 67.75 166.56 65.96 166.07
  C 63.48 165.40 61.43 163.51 58.92 162.47
  C 56.63 161.52 55.07 160.76 54.22 160.18
  C 45.93 154.50 35.39 145.92 30.45 137.79
  C 29.40 136.05 28.04 134.54 27.11 132.89
  C 23.66 126.72 21.05 120.21 19.29 113.36
  C 18.33 109.61 17.17 106.31 16.90 102.33
  C 16.66 98.68 15.96 94.84 15.94 91.51
  C 15.92 87.07 16.58 83.90 16.96 80.02
  C 17.40 75.55 18.90 71.39 20.18 67.20
  C 24.77 52.10 35.87 36.47 48.99 27.57
  C 50.83 26.32 52.51 24.93 54.44 23.91
  C 59.01 21.52 63.66 19.28 68.39 17.21
  C 69.60 16.68 71.32 16.21 73.57 15.80
  C 76.03 15.35 78.16 14.30 80.55 14.02
  C 88.40 13.10 95.72 10.99 103.75 12.37
  C 108.77 13.23 113.88 13.79 118.82 15.14
  C 121.17 15.78 123.42 16.09 125.63 17.03
  C 149.74 27.35 165.68 43.41 174.17 67.83
  C 174.40 68.52 174.73 70.18 175.16 72.82
  C 175.42 74.43 175.95 75.98 176.75 77.45
  C 176.91 77.74 176.99 78.05 176.99 78.38
  C 177.00 81.97 177.12 85.55 177.33 89.12
  C 177.61 93.98 177.06 98.75 176.99 103.64
  C 176.97 104.99 176.68 106.51 176.11 108.20
  C 175.29 110.63 175.16 113.27 174.29 115.53
  C 172.68 119.74 171.19 124.19 169.21 127.99
  C 163.68 138.55 156.53 147.40 147.78 154.54
  C 140.62 160.38 132.31 164.53 122.86 166.98
  Z"
/>
<path fill="#c59739" d="
  M 122.86 166.98
  C 110.17 170.95 97.26 171.92 84.13 169.89
  C 80.33 169.30 75.76 167.98 71.61 167.11
  C 70.57 166.38 69.41 165.84 68.12 165.49
  C 66.33 165.00 65.13 164.62 64.51 164.33
  C 57.94 161.25 52.41 158.00 47.90 154.57
  C 36.29 145.75 27.95 135.02 22.90 122.37
  C 21.25 118.24 19.74 112.94 18.38 106.48
  C 17.50 102.33 17.42 97.81 16.98 93.42
  C 16.58 89.46 17.45 85.74 17.71 81.76
  C 17.84 79.69 18.16 77.73 18.67 75.86
  C 20.33 69.80 21.60 64.20 24.69 57.90
  C 30.07 46.93 38.75 36.17 48.26 29.08
  C 54.53 24.40 62.34 20.34 71.70 16.91
  C 73.15 16.38 74.79 16.43 76.39 15.86
  C 80.65 14.36 85.36 14.29 89.49 13.47
  C 94.55 12.47 98.79 12.47 104.22 13.45
  C 111.07 14.69 118.11 15.13 124.65 17.74
  C 149.10 27.48 167.15 45.96 174.19 71.76
  C 174.49 72.87 174.98 75.04 175.66 78.25
  C 177.25 85.82 176.80 94.67 176.23 102.36
  C 175.99 105.58 174.88 110.03 173.94 113.30
  C 170.55 125.10 164.95 135.34 157.14 144.01
  C 148.07 154.08 136.64 161.73 122.86 166.98
  Z
  M 96.50 64.28
  L 84.58 57.20
  C 84.12 56.93 83.84 56.43 83.83 55.89
  L 83.71 43.50
  C 83.71 43.25 83.50 43.04 83.25 43.04
  L 67.31 42.90
  C 66.96 42.90 66.68 43.18 66.67 43.53
  L 66.50 55.93
  C 66.49 56.41 66.25 56.85 65.85 57.11
  C 61.59 59.86 57.39 62.49 53.25 65.00
  C 51.02 66.35 50.06 68.35 50.36 70.99
  C 50.41 71.36 50.61 71.54 50.98 71.54
  L 146.04 71.92
  C 146.35 71.93 146.50 71.77 146.50 71.46
  L 146.81 43.51
  C 146.82 43.21 146.57 42.96 146.26 42.96
  L 97.73 42.97
  C 97.43 42.97 97.18 43.22 97.18 43.52
  L 96.98 64.02
  C 96.98 64.26 96.71 64.40 96.50 64.28
  Z
  M 146.8936 89.5886
  C 146.89 89.35 146.70 89.16 146.4651 89.1571
  L 50.8057 88.8232
  C 50.57 88.82 50.38 89.01 50.3742 89.2517
  L 50.2064 137.3114
  C 50.21 137.55 50.40 137.74 50.6349 137.7429
  L 146.2943 138.0768
  C 146.53 138.08 146.72 137.89 146.7258 137.6483
  L 146.8936 89.5886
  Z"
/>
<path fill="#efd8a3" d="
  M 275.98 48.37
  C 275.31 47.98 275.48 47.66 276.51 47.39
  C 276.80 47.32 277.13 47.28 277.50 47.28
  C 289.02 47.33 300.73 47.37 312.64 47.38
  C 313.87 47.38 314.49 46.76 314.50 45.52
  L 314.50 39.25
  C 314.50 37.98 313.87 37.41 312.61 37.54
  C 310.60 37.74 308.40 37.86 306.00 37.89
  C 278.96 38.23 251.92 38.13 224.88 37.58
  C 222.59 37.53 220.82 37.49 219.57 37.44
  C 218.35 37.40 217.73 37.99 217.72 39.21
  L 217.63 45.79
  C 217.62 46.99 218.21 47.58 219.41 47.56
  C 230.70 47.35 242.07 47.26 253.51 47.29
  C 257.44 47.30 256.85 49.19 257.52 51.93
  C 257.79 53.01 257.61 53.29 256.99 52.76
  C 257.24 52.11 257.21 51.64 256.92 51.35
  C 255.93 50.34 254.92 49.35 253.89 48.37
  C 253.64 48.13 253.35 48.01 253.01 48.01
  L 217.50 48.02
  C 217.16 48.02 216.99 47.85 216.99 47.50
  L 216.98 38.26
  C 216.98 37.01 217.99 36.00 219.24 36.00
  L 223.22 35.99
  C 223.46 35.99 223.65 36.09 223.79 36.30
  C 223.86 36.40 223.93 36.50 224.00 36.59
  C 224.21 36.86 224.49 36.99 224.82 36.99
  C 251.97 37.00 279.11 37.00 306.25 36.99
  C 307.14 36.99 307.78 36.78 308.19 36.36
  C 308.42 36.12 308.70 36.00 309.03 36.00
  L 313.01 36.00
  C 314.12 35.99 315.02 36.90 315.02 38.01
  L 315.01 47.49
  C 315.01 47.83 314.84 48.00 314.50 48.00
  L 275.98 48.37
  Z"
/>
<path fill="#efd8a3" d="
  M 357.00 37.15
  L 337.74 36.66
  C 344.05 35.89 350.32 35.71 356.54 36.12
  C 356.85 36.14 357.01 36.31 357.00 36.62
  L 357.00 37.15
  Z"
/>
<path fill="#efd8a3" d="
  M 604.96 81.30
  L 555.13 81.29
  C 553.18 81.29 552.23 80.31 552.26 78.36
  C 552.43 69.43 552.49 60.60 552.44 51.89
  C 552.44 50.51 552.83 49.59 553.44 48.40
  C 553.58 48.13 553.79 47.96 554.08 47.87
  C 555.08 47.60 555.89 47.46 556.50 47.45
  C 573.58 47.31 591.11 47.28 609.10 47.36
  C 610.08 47.36 610.88 46.56 610.87 45.58
  L 610.83 38.23
  C 610.83 37.79 610.40 37.49 609.98 37.63
  L 609.31 37.86
  C 609.14 37.92 608.97 37.95 608.80 37.94
  L 535.64 37.87
  C 534.62 37.87 533.87 38.84 534.14 39.83
  C 534.73 42.03 535.07 44.21 535.02 46.64
  C 534.54 69.48 534.47 92.32 534.81 115.17
  C 534.85 117.97 534.53 120.69 534.32 123.49
  C 534.17 125.69 534.27 129.87 534.63 136.02
  C 533.54 135.50 532.99 134.82 532.98 133.99
  C 532.97 133.00 532.98 132.00 533.02 130.99
  C 533.08 129.43 534.19 127.70 533.71 126.00
  C 532.63 122.17 533.97 120.90 533.98 117.51
  C 534.01 92.26 534.01 67.00 533.98 41.75
  C 533.98 41.50 533.86 41.28 533.62 41.07
  C 533.37 40.86 533.19 40.60 533.10 40.29
  C 532.39 38.04 533.88 36.99 535.98 36.99
  C 560.47 36.99 584.95 36.99 609.43 36.99
  C 609.75 36.99 609.94 36.84 610.00 36.53
  C 610.02 36.41 610.07 36.31 610.15 36.23
  C 610.28 36.10 610.42 36.08 610.59 36.17
  C 611.46 36.67 611.95 37.38 612.08 38.31
  C 612.12 38.66 612.29 38.92 612.59 39.11
  C 612.81 39.25 612.96 39.47 613.05 39.76
  C 613.16 40.16 613.05 40.49 612.71 40.74
  L 612.42 40.95
  C 612.14 41.16 612.00 41.43 612.00 41.78
  L 612.00 46.00
  C 612.01 47.11 611.11 48.01 610.00 48.01
  L 558.12 48.02
  C 555.30 48.02 553.01 50.31 553.01 53.13
  L 553.02 77.75
  C 553.02 78.99 554.02 79.99 555.25 79.99
  L 604.49 79.99
  C 604.80 79.99 604.97 80.14 605.00 80.45
  C 605.05 80.88 605.03 81.16 604.96 81.30
  Z"
/>
<path fill="#c59739" d="
  M 357.00 37.15
  L 356.99 135.47
  C 356.99 135.82 356.81 136.00 356.46 136.00
  L 338.46 135.98
  C 338.20 135.67 338.07 135.35 338.07 135.00
  C 338.06 103.43 338.04 71.86 338.03 40.30
  L 337.74 36.66
  L 357.00 37.15
  Z"
/>
<path fill="#efd8a3" d="
  M 435.70 135.95
  C 442.35 135.40 449.41 135.45 455.89 133.93
  C 457.67 133.52 459.46 133.18 461.27 132.92
  C 464.47 132.46 467.06 131.92 469.04 131.30
  C 477.22 128.76 483.49 126.37 491.62 120.80
  C 503.04 112.98 507.60 102.28 508.97 88.75
  C 509.32 85.28 508.38 82.28 508.26 79.41
  C 508.14 76.46 507.25 74.36 506.49 71.95
  C 503.58 62.72 494.76 54.58 486.86 49.73
  C 484.92 48.55 482.37 47.50 480.17 46.33
  C 477.48 44.90 474.80 44.30 471.99 43.25
  C 470.61 42.74 469.33 42.61 467.91 42.39
  C 465.54 42.01 463.83 40.60 461.23 40.33
  C 458.89 40.09 457.10 38.87 454.67 38.79
  C 448.03 38.58 441.19 38.04 434.76 38.06
  C 420.01 38.09 405.09 38.13 390.00 38.18
  C 389.52 38.19 389.14 38.57 389.14 39.04
  L 389.11 136.01
  C 388.64 136.15 387.92 134.91 386.97 132.30
  C 386.76 131.71 386.94 131.28 387.53 131.01
  C 387.81 130.88 387.99 130.59 387.99 130.28
  L 388.00 39.01
  C 388.00 37.89 388.90 36.99 390.01 36.99
  C 403.78 37.01 417.70 37.01 431.77 36.99
  C 438.88 36.97 446.97 38.02 454.68 38.04
  C 456.60 38.04 458.05 38.59 459.80 39.18
  C 461.15 39.63 463.81 39.86 465.56 40.78
  C 467.42 41.77 468.84 41.77 470.77 42.05
  C 472.73 42.34 474.34 43.38 476.33 43.90
  C 477.52 44.21 478.43 44.51 479.06 44.79
  C 488.29 48.91 494.38 52.87 500.85 60.23
  C 502.93 62.59 504.10 65.69 505.97 68.41
  C 507.05 70.00 507.17 71.63 508.00 73.36
  C 509.87 77.26 508.62 80.90 510.52 84.99
  C 510.98 85.97 510.84 87.77 510.42 88.99
  C 509.06 92.97 509.40 96.97 507.84 100.67
  C 505.38 106.50 503.54 110.21 502.33 111.80
  C 495.60 120.66 488.76 124.52 478.58 129.22
  C 476.93 129.98 474.44 130.16 472.57 131.66
  C 472.32 131.86 472.03 131.96 471.72 131.96
  C 469.76 131.97 467.30 132.45 465.70 133.62
  C 465.35 133.88 464.78 134.01 464.00 134.01
  C 461.65 134.00 459.30 134.00 456.94 134.02
  C 456.55 134.03 456.24 134.19 456.01 134.51
  C 455.72 134.91 455.31 135.08 454.78 135.01
  C 454.46 134.97 454.14 135.13 453.99 135.42
  C 453.79 135.81 453.54 136.00 453.25 136.01
  C 448.35 136.02 443.45 136.02 438.55 135.99
  C 438.32 135.99 438.16 136.10 438.07 136.31
  L 437.94 136.62
  C 437.85 136.85 437.68 136.99 437.44 137.06
  C 436.70 137.26 436.12 136.89 435.70 135.95
  Z"
/>
<path fill="#c59739" d="
  M 275.98 48.37
  L 275.37 49.09
  C 275.14 49.35 275.02 49.68 275.02 50.02
  L 275.02 135.50
  C 275.02 135.85 274.85 136.02 274.50 136.02
  L 266.80 136.02
  C 266.51 136.02 266.24 136.14 266.05 136.36
  L 265.79 136.66
  C 265.56 136.92 265.28 137.04 264.94 137.03
  C 264.54 137.02 264.25 136.84 264.07 136.51
  C 263.90 136.18 263.63 136.02 263.26 136.02
  L 257.75 136.02
  C 257.38 136.03 257.13 135.86 256.99 135.52
  C 256.89 135.28 256.73 135.11 256.51 135.01
  C 255.82 134.69 255.71 134.41 256.18 134.16
  L 256.55 133.96
  C 256.76 133.85 256.89 133.68 256.96 133.45
  C 257.23 132.40 257.04 131.49 256.41 130.72
  C 256.24 130.51 256.26 130.32 256.47 130.15
  L 256.76 129.92
  C 256.91 129.81 256.98 129.66 256.98 129.47
  L 256.98 55.55
  C 256.98 55.35 256.89 55.20 256.71 55.11
  L 256.37 54.94
  C 256.15 54.83 256.02 54.64 255.98 54.39
  C 255.83 53.44 256.16 52.89 256.99 52.76
  C 257.61 53.29 257.79 53.01 257.52 51.93
  C 256.85 49.19 257.44 47.30 253.51 47.29
  C 242.07 47.26 230.70 47.35 219.41 47.56
  C 218.21 47.58 217.62 46.99 217.63 45.79
  L 217.72 39.21
  C 217.73 37.99 218.35 37.40 219.57 37.44
  C 220.82 37.49 222.59 37.53 224.88 37.58
  C 251.92 38.13 278.96 38.23 306.00 37.89
  C 308.40 37.86 310.60 37.74 312.61 37.54
  C 313.87 37.41 314.50 37.98 314.50 39.25
  L 314.50 45.52
  C 314.49 46.76 313.87 47.38 312.64 47.38
  C 300.73 47.37 289.02 47.33 277.50 47.28
  C 277.13 47.28 276.80 47.32 276.51 47.39
  C 275.48 47.66 275.31 47.98 275.98 48.37
  Z"
/>
<path fill="#c59739" d="
  M 604.96 81.30
  C 604.83 82.38 605.14 83.05 605.88 83.32
  C 606.03 83.38 606.05 83.58 605.92 83.67
  L 605.43 84.00
  C 605.20 84.16 605.08 84.38 605.09 84.67
  L 605.21 89.01
  C 605.24 90.24 604.75 90.85 603.75 90.85
  C 587.38 90.82 571.01 90.83 554.65 90.90
  C 553.35 90.91 552.31 91.96 552.32 93.26
  C 552.39 102.87 552.43 112.65 552.43 122.58
  C 552.43 125.28 553.62 126.24 556.24 125.95
  C 574.03 126.02 591.84 125.97 609.67 125.81
  C 609.86 125.81 610.10 125.62 610.37 125.23
  C 611.32 128.84 611.39 132.43 610.59 136.02
  L 534.63 136.02
  C 534.27 129.87 534.17 125.69 534.32 123.49
  C 534.53 120.69 534.85 117.97 534.81 115.17
  C 534.47 92.32 534.54 69.48 535.02 46.64
  C 535.07 44.21 534.73 42.03 534.14 39.83
  C 533.87 38.84 534.62 37.87 535.64 37.87
  L 608.80 37.94
  C 608.97 37.95 609.14 37.92 609.31 37.86
  L 609.98 37.63
  C 610.40 37.49 610.83 37.79 610.83 38.23
  L 610.87 45.58
  C 610.88 46.56 610.08 47.36 609.10 47.36
  C 591.11 47.28 573.58 47.31 556.50 47.45
  C 555.89 47.46 555.08 47.60 554.08 47.87
  C 553.79 47.96 553.58 48.13 553.44 48.40
  C 552.83 49.59 552.44 50.51 552.44 51.89
  C 552.49 60.60 552.43 69.43 552.26 78.36
  C 552.23 80.31 553.18 81.29 555.13 81.29
  L 604.96 81.30
  Z"
/>
<path fill="#c59739" d="
  M 435.70 135.95
  L 389.11 136.01
  L 389.14 39.04
  C 389.14 38.57 389.52 38.19 390.00 38.18
  C 405.09 38.13 420.01 38.09 434.76 38.06
  C 441.19 38.04 448.03 38.58 454.67 38.79
  C 457.10 38.87 458.89 40.09 461.23 40.33
  C 463.83 40.60 465.54 42.01 467.91 42.39
  C 469.33 42.61 470.61 42.74 471.99 43.25
  C 474.80 44.30 477.48 44.90 480.17 46.33
  C 482.37 47.50 484.92 48.55 486.86 49.73
  C 494.76 54.58 503.58 62.72 506.49 71.95
  C 507.25 74.36 508.14 76.46 508.26 79.41
  C 508.38 82.28 509.32 85.28 508.97 88.75
  C 507.60 102.28 503.04 112.98 491.62 120.80
  C 483.49 126.37 477.22 128.76 469.04 131.30
  C 467.06 131.92 464.47 132.46 461.27 132.92
  C 459.46 133.18 457.67 133.52 455.89 133.93
  C 449.41 135.45 442.35 135.40 435.70 135.95
  Z
  M 451.64 49.24
  C 447.00 48.65 442.34 47.70 437.76 47.62
  C 427.79 47.45 417.93 47.42 408.18 47.54
  C 407.39 47.55 406.75 48.20 406.75 48.99
  L 406.75 123.23
  C 406.75 124.82 408.03 126.10 409.61 126.10
  C 417.42 126.12 425.15 126.13 432.80 126.14
  C 438.43 126.14 443.93 125.51 449.53 125.00
  C 452.88 124.70 455.97 123.76 459.24 122.99
  C 462.02 122.34 464.38 121.58 466.32 120.70
  C 479.34 114.79 488.56 106.63 490.34 91.64
  C 491.83 79.03 487.02 66.15 476.69 58.79
  C 469.44 53.62 461.09 50.44 451.64 49.24
  Z"
/>
<path fill="#efd8a3" d="
  M 338.03 40.30
  C 338.04 71.86 338.06 103.43 338.07 135.00
  C 338.07 135.35 338.20 135.67 338.46 135.98
  L 337.50 136.00
  C 337.17 136.01 337.00 135.85 337.00 135.51
  L 337.00 41.75
  C 337.00 41.48 337.14 41.23 337.36 41.09
  C 337.74 40.84 337.96 40.57 338.03 40.30
  Z"
/>
<path fill="#000001" d="
  M 96.50 64.28
  C 96.71 64.40 96.98 64.26 96.98 64.02
  L 97.18 43.52
  C 97.18 43.22 97.43 42.97 97.73 42.97
  L 146.26 42.96
  C 146.57 42.96 146.82 43.21 146.81 43.51
  L 146.50 71.46
  C 146.50 71.77 146.35 71.93 146.04 71.92
  L 50.98 71.54
  C 50.61 71.54 50.41 71.36 50.36 70.99
  C 50.06 68.35 51.02 66.35 53.25 65.00
  C 57.39 62.49 61.59 59.86 65.85 57.11
  C 66.25 56.85 66.49 56.41 66.50 55.93
  L 66.67 43.53
  C 66.68 43.18 66.96 42.90 67.31 42.90
  L 83.25 43.04
  C 83.50 43.04 83.71 43.25 83.71 43.50
  L 83.83 55.89
  C 83.84 56.43 84.12 56.93 84.58 57.20
  L 96.50 64.28
  Z
  M 54.84 68.92
  L 95.01 69.00
  C 95.13 69.00 95.24 68.95 95.32 68.87
  C 95.54 68.64 95.52 68.44 95.27 68.26
  C 90.72 65.00 86.21 61.85 81.75 58.81
  C 81.17 58.42 80.82 57.76 80.81 57.05
  L 80.76 46.74
  C 80.76 46.25 80.36 45.85 79.87 45.84
  L 70.22 45.74
  C 69.92 45.73 69.68 45.97 69.67 46.27
  L 69.43 56.98
  C 69.41 57.94 68.89 58.82 68.06 59.30
  C 64.52 61.35 56.48 65.44 54.62 68.51
  C 54.45 68.78 54.53 68.91 54.84 68.92
  Z
  M 100.79 45.81
  C 100.46 45.81 100.20 46.07 100.20 46.40
  L 100.19 55.18
  C 100.19 55.51 100.45 55.77 100.78 55.77
  L 142.82 55.82
  C 143.14 55.82 143.40 55.57 143.41 55.25
  L 143.77 46.44
  C 143.79 46.11 143.52 45.83 143.19 45.83
  L 100.79 45.81
  Z
  M 143.87 59.70
  C 143.87 59.23 143.49 58.85 143.02 58.85
  L 100.82 58.85
  C 100.35 58.85 99.97 59.23 99.97 59.70
  L 99.97 68.14
  C 99.97 68.61 100.35 68.99 100.82 68.99
  L 143.02 68.99
  C 143.49 68.99 143.87 68.61 143.87 68.14
  L 143.87 59.70
  Z"
/>
<path fill="#c59739" d="
  M 54.84 68.92
  C 54.53 68.91 54.45 68.78 54.62 68.51
  C 56.48 65.44 64.52 61.35 68.06 59.30
  C 68.89 58.82 69.41 57.94 69.43 56.98
  L 69.67 46.27
  C 69.68 45.97 69.92 45.73 70.22 45.74
  L 79.87 45.84
  C 80.36 45.85 80.76 46.25 80.76 46.74
  L 80.81 57.05
  C 80.82 57.76 81.17 58.42 81.75 58.81
  C 86.21 61.85 90.72 65.00 95.27 68.26
  C 95.52 68.44 95.54 68.64 95.32 68.87
  C 95.24 68.95 95.13 69.00 95.01 69.00
  L 54.84 68.92
  Z"
/>
<path fill="#c59739" d="
  M 100.79 45.81
  L 143.19 45.83
  C 143.52 45.83 143.79 46.11 143.77 46.44
  L 143.41 55.25
  C 143.40 55.57 143.14 55.82 142.82 55.82
  L 100.78 55.77
  C 100.45 55.77 100.19 55.51 100.19 55.18
  L 100.20 46.40
  C 100.20 46.07 100.46 45.81 100.79 45.81
  Z"
/>
<path fill="#efd8a3" d="
  M 451.64 49.24
  C 461.09 50.44 469.44 53.62 476.69 58.79
  C 487.02 66.15 491.83 79.03 490.34 91.64
  C 488.56 106.63 479.34 114.79 466.32 120.70
  C 464.38 121.58 462.02 122.34 459.24 122.99
  C 455.97 123.76 452.88 124.70 449.53 125.00
  C 443.93 125.51 438.43 126.14 432.80 126.14
  C 425.15 126.13 417.42 126.12 409.61 126.10
  C 408.03 126.10 406.75 124.82 406.75 123.23
  L 406.75 48.99
  C 406.75 48.20 407.39 47.55 408.18 47.54
  C 417.93 47.42 427.79 47.45 437.76 47.62
  C 442.34 47.70 447.00 48.65 451.64 49.24
  Z
  M 409.62 123.96
  C 409.54 124.13 409.50 124.30 409.51 124.49
  C 409.52 124.82 409.69 124.98 410.02 124.98
  C 418.39 125.01 426.75 125.02 435.12 124.99
  C 437.41 124.98 440.13 124.68 443.29 124.11
  C 446.00 123.61 448.74 123.27 451.51 123.10
  C 452.82 123.02 454.10 122.71 455.36 122.17
  C 458.45 120.85 462.54 121.45 464.21 120.47
  C 470.18 116.94 476.28 114.09 481.11 108.98
  C 486.73 103.03 488.72 94.78 488.96 86.73
  C 489.02 84.50 488.34 82.20 488.13 79.86
  C 487.94 77.88 487.57 76.20 487.01 74.83
  C 485.59 71.32 484.52 69.11 483.81 68.19
  C 478.02 60.69 470.65 55.65 461.70 53.08
  C 457.45 51.86 453.11 50.78 448.76 50.49
  C 447.63 50.41 446.87 50.08 446.49 49.51
  C 446.28 49.20 445.93 49.01 445.55 49.01
  L 408.50 48.99
  C 408.17 48.99 408.00 49.16 408.00 49.50
  L 408.00 123.23
  C 408.00 123.56 408.16 123.68 408.48 123.61
  L 409.21 123.45
  C 409.51 123.38 409.75 123.68 409.62 123.96
  Z"
/>
<rect fill="#c59739" x="99.97" y="58.85" width="43.90" height="10.14" rx="0.85"/>
<path fill="#000001" d="
  M 146.7258 137.6483
  C 146.72 137.89 146.53 138.08 146.2943 138.0768
  L 50.6349 137.7429
  C 50.40 137.74 50.21 137.55 50.2064 137.3114
  L 50.3742 89.2517
  C 50.38 89.01 50.57 88.82 50.8057 88.8232
  L 146.4651 89.1571
  C 146.70 89.16 146.89 89.35 146.8936 89.5886
  L 146.7258 137.6483
  Z
  M 96.8003 92.5479
  C 96.80 92.21 96.53 91.94 96.1914 91.9369
  L 53.9715 91.8632
  C 53.63 91.86 53.36 92.14 53.3604 92.4721
  L 53.3397 104.3521
  C 53.34 104.69 53.61 104.96 53.9486 104.9631
  L 96.1685 105.0368
  C 96.51 105.04 96.78 104.76 96.7796 104.4279
  L 96.8003 92.5479
  Z
  M 120.3670 92.3578
  C 120.37 92.15 120.20 91.98 119.9876 91.9771
  L 100.4076 91.9429
  C 100.20 91.94 100.03 92.11 100.0270 92.3223
  L 99.9530 134.6822
  C 99.95 134.89 100.12 135.06 100.3324 135.0629
  L 119.9124 135.0971
  C 120.12 135.10 120.29 134.93 120.2930 134.7177
  L 120.3670 92.3578
  Z
  M 143.8870 92.3778
  C 143.89 92.12 143.68 91.92 143.4278 91.9170
  L 123.9478 91.8830
  C 123.69 91.88 123.49 92.09 123.4870 92.3422
  L 123.4130 134.7222
  C 123.41 134.98 123.62 135.18 123.8722 135.1830
  L 143.3522 135.2170
  C 143.61 135.22 143.81 135.01 143.8130 134.7578
  L 143.8870 92.3778
  Z
  M 96.8998 108.8519
  C 96.90 108.50 96.62 108.22 96.2742 108.2176
  L 54.0952 107.9231
  C 53.75 107.92 53.46 108.20 53.4609 108.5487
  L 53.2802 134.4281
  C 53.28 134.78 53.56 135.06 53.9058 135.0624
  L 96.0848 135.3569
  C 96.43 135.36 96.72 135.08 96.7191 134.7313
  L 96.8998 108.8519
  Z"
/>
<path fill="#efd8a3" d="
  M 605.21 89.01
  C 606.10 89.22 606.34 89.79 605.94 90.72
  C 605.61 91.50 604.84 92.01 603.98 92.01
  L 555.25 92.01
  C 554.01 92.01 553.01 93.01 553.01 94.25
  L 553.02 123.25
  C 553.02 124.33 554.08 125.11 555.18 124.85
  C 555.51 124.77 555.87 125.14 556.24 125.95
  C 553.62 126.24 552.43 125.28 552.43 122.58
  C 552.43 112.65 552.39 102.87 552.32 93.26
  C 552.31 91.96 553.35 90.91 554.65 90.90
  C 571.01 90.83 587.38 90.82 603.75 90.85
  C 604.75 90.85 605.24 90.24 605.21 89.01
  Z"
/>
<rect fill="#c59739" x="-21.72" y="-6.55" transform="translate(75.07,98.45) rotate(0.1)" width="43.44" height="13.10" rx="0.61"/>
<rect fill="#c59739" x="-10.17" y="-21.56" transform="translate(110.16,113.52) rotate(0.1)" width="20.34" height="43.12" rx="0.38"/>
<rect fill="#c59739" x="-10.20" y="-21.65" transform="translate(133.65,113.55) rotate(0.1)" width="20.40" height="43.30" rx="0.46"/>
<path fill="#c59739" d="
  M 96.7191 134.7313
  C 96.72 135.08 96.43 135.36 96.0848 135.3569
  L 53.9058 135.0624
  C 53.56 135.06 53.28 134.78 53.2802 134.4281
  L 53.4609 108.5487
  C 53.46 108.20 53.75 107.92 54.0952 107.9231
  L 96.2742 108.2176
  C 96.62 108.22 96.90 108.50 96.8998 108.8519
  L 96.7191 134.7313
  Z
  M 91.8535 113.6043
  C 91.85 113.46 91.74 113.34 91.5962 113.3416
  L 58.9180 112.9993
  C 58.77 113.00 58.66 113.11 58.6553 113.2566
  L 58.4865 129.3757
  C 58.49 129.52 58.60 129.64 58.7438 129.6384
  L 91.4220 129.9807
  C 91.57 129.98 91.68 129.87 91.6847 129.7234
  L 91.8535 113.6043
  Z"
/>
<path fill="#000001" d="
  M 91.6847 129.7234
  C 91.68 129.87 91.57 129.98 91.4220 129.9807
  L 58.7438 129.6384
  C 58.60 129.64 58.49 129.52 58.4865 129.3757
  L 58.6553 113.2566
  C 58.66 113.11 58.77 113.00 58.9180 112.9993
  L 91.5962 113.3416
  C 91.74 113.34 91.85 113.46 91.8535 113.6043
  L 91.6847 129.7234
  Z
  M 88.8270 116.6379
  C 88.83 116.28 88.54 115.99 88.1792 115.9856
  L 62.0594 115.8944
  C 61.70 115.89 61.41 116.18 61.4071 116.5422
  L 61.3730 126.3021
  C 61.37 126.66 61.66 126.95 62.0208 126.9544
  L 88.1406 127.0456
  C 88.50 127.05 88.79 126.76 88.7929 126.3978
  L 88.8270 116.6379
  Z"
/>
<rect fill="#c59739" x="-13.71" y="-5.53" transform="translate(75.10,121.47) rotate(0.2)" width="27.42" height="11.06" rx="0.65"/>
<path fill="#efd8a3" d="
  M 610.59 136.02
  C 611.39 132.43 611.32 128.84 610.37 125.23
  C 611.47 125.57 612.04 126.38 612.09 127.66
  C 612.10 127.99 612.19 128.30 612.36 128.59
  C 613.06 129.80 613.21 131.10 612.81 132.50
  C 612.06 135.19 611.32 136.37 610.59 136.02
  Z"
/>
<path fill="#616160" d="
  M 302.47 149.04
  L 303.39 148.42
  C 303.76 148.17 303.96 148.26 303.98 148.71
  L 304.28 154.95
  C 304.30 155.29 304.14 155.49 303.80 155.56
  C 303.39 155.64 303.13 155.52 303.02 155.19
  C 301.72 151.33 298.45 148.93 294.45 150.70
  C 290.15 152.59 289.12 158.84 290.68 162.82
  C 292.90 168.52 299.04 169.14 303.34 165.00
  C 303.63 164.71 303.95 164.69 304.28 164.92
  L 304.55 165.10
  C 304.76 165.25 304.78 165.43 304.61 165.63
  C 302.40 168.16 299.72 169.44 296.59 169.46
  C 282.65 169.55 282.56 148.96 296.53 148.50
  C 297.34 148.47 298.99 148.72 301.49 149.23
  C 301.84 149.30 302.17 149.24 302.47 149.04
  Z"
/>
<path fill="#616160" d="
  M 220.24 157.39
  L 226.67 151.03
  C 227.00 150.71 226.81 150.16 226.36 150.09
  C 225.80 150.01 225.29 149.80 224.83 149.47
  C 224.54 149.26 224.69 148.79 225.06 148.79
  L 232.41 148.78
  C 232.66 148.78 232.82 148.90 232.88 149.15
  C 232.91 149.28 232.90 149.40 232.87 149.51
  C 232.84 149.64 232.76 149.72 232.63 149.75
  C 228.96 150.70 225.91 154.40 223.37 157.11
  C 223.14 157.35 223.14 157.60 223.36 157.85
  C 225.25 160.03 230.86 167.08 233.21 167.84
  C 235.58 168.61 235.51 169.00 233.00 169.00
  L 225.75 169.00
  C 224.67 168.99 224.55 168.69 225.38 168.10
  C 225.53 167.99 225.84 167.91 226.29 167.86
  C 226.84 167.81 227.09 167.15 226.72 166.74
  L 220.45 159.87
  C 220.15 159.54 219.61 159.73 219.58 160.17
  C 219.44 162.49 218.39 168.01 221.98 168.07
  C 222.12 168.07 222.19 168.14 222.18 168.27
  L 222.18 168.58
  C 222.17 168.86 222.03 169.00 221.74 169.00
  L 213.55 168.98
  C 213.41 168.98 213.33 168.91 213.30 168.77
  C 213.29 168.66 213.27 168.56 213.25 168.46
  C 213.22 168.32 213.28 168.24 213.42 168.22
  C 214.19 168.11 214.89 167.84 215.52 167.42
  C 215.84 167.21 216.00 166.90 216.00 166.51
  L 216.01 151.23
  C 216.01 150.88 215.83 150.55 215.54 150.36
  C 215.00 150.01 214.40 149.80 213.74 149.73
  C 213.43 149.70 213.27 149.53 213.27 149.21
  C 213.28 148.96 213.38 148.83 213.57 148.82
  C 215.50 148.73 218.33 148.74 222.05 148.83
  C 222.17 148.84 222.26 148.93 222.25 149.04
  L 222.24 149.32
  C 222.23 149.59 222.10 149.72 221.84 149.73
  C 218.50 149.88 219.47 154.91 219.51 157.09
  C 219.52 157.75 219.77 157.85 220.24 157.39
  Z"
/>
<path fill="#616160" d="
  M 244.34 150.04
  L 242.83 149.69
  C 242.64 149.65 242.51 149.48 242.50 149.29
  C 242.49 148.99 242.59 148.83 242.82 148.82
  C 244.51 148.73 247.39 148.74 251.46 148.84
  C 251.65 148.84 251.74 148.94 251.73 149.13
  L 251.71 149.45
  C 251.70 149.69 251.57 149.81 251.32 149.80
  C 249.71 149.75 248.90 150.48 248.90 151.99
  C 248.89 156.89 248.92 161.79 248.99 166.68
  C 249.00 167.05 249.17 167.33 249.50 167.51
  C 250.15 167.86 250.84 168.08 251.59 168.16
  C 251.80 168.19 251.89 168.30 251.87 168.51
  L 251.85 168.79
  C 251.84 168.87 251.79 168.91 251.70 168.92
  C 248.66 169.07 245.94 169.07 243.53 168.94
  C 242.08 168.86 242.06 168.59 243.49 168.13
  C 244.60 167.77 245.18 167.18 245.22 166.35
  C 245.43 161.50 245.51 156.52 245.47 151.43
  C 245.46 150.76 245.00 150.19 244.34 150.04
  Z"
/>
<path fill="#616160" d="
  M 270.50 151.05
  L 270.51 166.65
  C 270.51 167.46 271.22 168.10 272.03 168.00
  C 272.50 167.94 272.90 168.03 273.25 168.28
  C 273.57 168.50 273.41 169.00 273.02 169.00
  L 264.72 168.99
  C 264.57 168.99 264.43 168.92 264.33 168.81
  C 264.15 168.60 264.17 168.40 264.39 168.22
  C 264.44 168.18 264.50 168.15 264.57 168.14
  C 265.30 168.06 265.96 167.82 266.56 167.43
  C 266.89 167.21 267.05 166.90 267.05 166.51
  L 267.08 151.02
  C 267.08 150.76 266.95 150.60 266.69 150.55
  C 263.62 149.92 261.78 151.01 261.17 153.82
  C 261.14 153.97 261.05 154.10 260.92 154.18
  C 260.64 154.35 260.40 154.33 260.20 154.12
  C 260.11 154.03 260.06 153.89 260.05 153.70
  C 259.96 152.27 259.97 150.83 260.08 149.38
  C 260.11 148.99 260.33 148.79 260.72 148.79
  L 277.00 148.79
  C 277.31 148.79 277.47 148.94 277.48 149.25
  L 277.64 153.83
  C 277.65 154.12 277.51 154.25 277.23 154.23
  L 276.90 154.20
  C 276.63 154.18 276.46 154.04 276.40 153.78
  C 275.75 150.96 273.91 149.90 270.86 150.59
  C 270.62 150.65 270.50 150.80 270.50 151.05
  Z"
/>
<path fill="#616160" d="
  M 328.02 156.71
  L 328.01 151.29
  C 328.01 150.65 327.53 150.11 326.90 150.04
  C 326.43 149.99 326.07 149.87 325.81 149.70
  C 324.90 149.09 324.96 148.78 326.00 148.78
  L 333.91 148.79
  C 334.10 148.79 334.18 148.88 334.17 149.07
  L 334.15 149.36
  C 334.14 149.63 333.99 149.78 333.72 149.79
  C 332.30 149.84 331.57 150.49 331.54 151.74
  C 331.48 153.94 331.48 158.52 331.54 165.49
  C 331.55 167.09 332.29 167.94 333.76 168.04
  C 333.93 168.05 334.06 168.17 334.10 168.34
  L 334.17 168.72
  C 334.20 168.91 334.12 169.01 333.93 169.01
  L 325.61 168.98
  C 325.50 168.98 325.41 168.91 325.37 168.81
  C 325.30 168.65 325.31 168.50 325.38 168.37
  C 325.39 168.34 325.42 168.31 325.45 168.30
  L 327.37 167.58
  C 327.79 167.42 328.00 167.11 328.00 166.66
  L 328.03 160.80
  C 328.04 159.98 327.63 159.57 326.80 159.57
  L 320.22 159.57
  C 319.59 159.58 319.12 160.12 319.20 160.74
  C 319.49 163.01 318.25 167.76 321.56 168.03
  C 321.81 168.05 321.93 168.19 321.93 168.44
  L 321.93 168.79
  C 321.93 168.93 321.86 169.00 321.72 169.00
  L 313.67 169.00
  C 313.40 169.00 313.24 168.87 313.21 168.60
  C 313.20 168.51 313.21 168.43 313.24 168.35
  C 313.27 168.26 313.33 168.21 313.42 168.20
  C 315.24 167.97 316.10 166.96 316.01 165.17
  C 315.79 160.67 316.01 156.06 315.94 151.54
  C 315.92 150.45 315.14 149.81 313.61 149.64
  C 313.40 149.61 313.30 149.50 313.31 149.30
  L 313.31 149.04
  C 313.31 148.87 313.39 148.79 313.56 148.79
  L 321.48 148.78
  C 321.73 148.78 321.94 148.99 321.93 149.24
  L 321.92 149.60
  C 321.91 149.77 321.82 149.86 321.65 149.87
  C 318.30 149.88 319.45 154.40 319.23 156.55
  C 319.14 157.47 319.55 157.93 320.48 157.94
  L 326.79 157.94
  C 327.62 157.94 328.03 157.53 328.02 156.71
  Z"
/>
<path fill="#616160" d="
  M 348.48 159.78
  L 348.53 166.57
  C 348.53 166.96 348.83 167.29 349.22 167.33
  C 352.73 167.69 356.98 167.88 358.87 164.14
  C 359.02 163.85 359.24 163.66 359.55 163.55
  C 359.65 163.51 359.75 163.47 359.86 163.44
  C 360.13 163.34 360.40 163.58 360.33 163.86
  L 359.14 168.53
  C 359.06 168.84 358.86 169.00 358.53 169.00
  L 342.60 168.99
  C 342.47 168.99 342.35 168.89 342.32 168.76
  C 342.30 168.65 342.28 168.53 342.26 168.42
  C 342.23 168.31 342.28 168.25 342.39 168.23
  C 343.18 168.11 343.90 167.83 344.55 167.39
  C 344.84 167.19 345.01 166.86 345.01 166.51
  L 345.00 151.48
  C 345.00 150.69 344.42 150.03 343.64 149.94
  C 343.21 149.89 342.82 149.74 342.49 149.49
  C 342.19 149.27 342.35 148.79 342.73 148.79
  L 358.27 148.79
  C 358.59 148.79 358.75 148.95 358.76 149.27
  L 358.81 153.01
  C 358.82 153.32 358.53 153.56 358.22 153.49
  C 358.13 153.47 358.04 153.45 357.95 153.43
  C 357.73 153.38 357.60 153.25 357.56 153.02
  C 356.92 149.43 351.62 150.09 349.06 150.39
  C 348.74 150.42 348.50 150.69 348.50 151.01
  L 348.50 157.10
  C 348.50 157.43 348.77 157.69 349.10 157.68
  L 354.35 157.54
  C 354.64 157.53 354.91 157.38 355.07 157.14
  C 355.41 156.65 355.70 156.02 355.94 155.25
  C 356.03 154.94 356.23 154.77 356.53 154.76
  C 356.87 154.75 357.04 154.92 357.04 155.26
  L 357.03 161.74
  C 357.03 161.96 356.92 162.06 356.71 162.05
  L 356.43 162.03
  C 356.14 162.02 355.90 161.80 355.87 161.52
  C 355.48 158.40 351.13 159.09 348.96 159.26
  C 348.63 159.29 348.47 159.46 348.48 159.78
  Z"
/>
<path fill="#616160" d="
  M 372.80 154.14
  C 372.72 157.75 372.75 161.45 372.90 165.26
  C 372.97 167.02 373.83 168.05 375.50 168.34
  C 375.66 168.37 375.77 168.53 375.72 168.69
  C 375.67 168.82 375.60 168.89 375.50 168.89
  C 373.11 169.00 370.72 169.02 368.33 168.96
  C 368.17 168.95 368.08 168.87 368.07 168.71
  C 368.06 168.62 368.05 168.54 368.04 168.45
  C 368.03 168.32 368.09 168.24 368.22 168.23
  C 369.93 168.01 370.96 167.20 370.98 165.33
  C 371.02 160.81 371.03 156.30 371.00 151.79
  C 371.00 151.48 370.87 151.17 370.65 150.95
  C 369.98 150.28 369.44 149.87 369.01 149.73
  C 367.12 149.10 367.20 148.78 369.25 148.78
  L 373.19 148.78
  C 373.49 148.78 373.77 148.92 373.95 149.15
  L 384.26 162.01
  C 384.65 162.50 384.85 162.43 384.86 161.81
  C 384.91 158.91 384.89 155.89 384.79 152.75
  C 384.73 150.91 383.91 149.93 382.32 149.82
  C 382.01 149.80 381.90 149.64 381.99 149.35
  C 382.02 149.26 382.04 149.18 382.07 149.09
  C 382.12 148.90 382.30 148.77 382.49 148.78
  L 389.18 148.80
  C 389.38 148.80 389.47 148.90 389.46 149.09
  L 389.43 149.39
  C 389.42 149.61 389.24 149.80 389.02 149.82
  C 387.43 149.97 386.62 150.94 386.59 152.75
  C 386.52 158.20 386.51 163.61 386.54 169.00
  C 386.54 169.48 385.93 169.70 385.63 169.32
  L 373.25 153.99
  C 372.96 153.64 372.81 153.69 372.80 154.14
  Z"
/>
<path fill="#616160" d="
  M 411.00 159.79
  L 411.00 166.54
  C 411.00 166.91 411.15 167.19 411.45 167.40
  C 412.06 167.83 412.75 168.09 413.50 168.20
  C 413.65 168.22 413.76 168.35 413.75 168.49
  L 413.75 168.76
  C 413.74 168.91 413.66 168.99 413.50 168.99
  L 405.18 169.00
  C 404.86 169.00 404.77 168.85 404.90 168.56
  L 405.07 168.17
  C 405.12 168.07 405.19 168.02 405.30 168.02
  C 406.73 168.03 407.45 167.52 407.46 166.51
  C 407.53 161.75 407.54 157.00 407.49 152.25
  C 407.48 150.70 406.75 149.90 405.31 149.84
  C 405.03 149.83 404.91 149.68 404.95 149.40
  L 405.01 148.99
  C 405.03 148.87 405.13 148.78 405.25 148.78
  L 420.77 148.79
  C 421.09 148.79 421.25 148.95 421.26 149.27
  L 421.30 152.94
  C 421.31 153.25 421.16 153.44 420.85 153.51
  C 420.44 153.60 420.19 153.46 420.12 153.07
  C 419.41 149.45 414.75 150.24 412.28 150.24
  C 411.43 150.24 411.00 150.67 411.00 151.52
  L 411.00 156.62
  C 411.00 157.36 411.37 157.72 412.12 157.69
  L 416.19 157.55
  C 416.46 157.54 416.73 157.46 416.94 157.30
  C 417.65 156.79 418.02 156.13 418.07 155.30
  C 418.09 154.95 418.40 154.69 418.75 154.73
  C 418.84 154.74 418.94 154.75 419.03 154.76
  C 419.17 154.77 419.27 154.88 419.27 155.02
  L 419.28 161.52
  C 419.28 161.85 419.11 162.02 418.78 162.01
  L 418.53 162.00
  C 418.27 161.99 418.05 161.79 418.03 161.52
  C 417.80 158.52 413.96 159.06 411.45 159.29
  C 411.15 159.32 411.00 159.49 411.00 159.79
  Z"
/>
<path fill="#616160" d="
  M 436.45 150.05
  C 435.86 150.18 435.42 150.69 435.40 151.30
  C 435.27 154.83 434.46 163.42 436.73 166.12
  C 439.11 168.96 444.81 167.71 445.64 163.50
  C 445.95 161.91 445.99 158.41 445.74 153.00
  C 445.65 150.95 444.85 149.91 443.35 149.87
  C 443.19 149.86 443.06 149.73 443.06 149.57
  L 443.08 149.20
  C 443.09 148.91 443.23 148.77 443.52 148.77
  L 450.10 148.80
  C 450.19 148.80 450.26 148.85 450.29 148.94
  L 450.38 149.22
  C 450.49 149.58 450.36 149.78 449.98 149.81
  C 443.03 150.38 454.08 169.90 439.34 169.31
  C 433.44 169.08 431.96 166.00 431.99 160.40
  C 432.02 155.86 432.00 152.91 431.93 151.55
  C 431.86 150.37 431.07 149.78 429.54 149.78
  C 429.37 149.78 429.29 149.70 429.28 149.54
  L 429.27 149.25
  C 429.26 148.99 429.47 148.78 429.72 148.78
  L 437.73 148.79
  C 437.90 148.79 437.98 148.87 437.99 149.03
  L 438.01 149.40
  C 438.02 149.61 437.93 149.73 437.72 149.78
  L 436.45 150.05
  Z"
/>
<path fill="#616160" d="
  M 469.77 159.71
  C 471.94 163.21 474.64 166.20 477.87 168.68
  C 478.00 168.78 477.93 168.98 477.77 168.98
  L 472.81 169.00
  C 472.65 169.00 472.52 168.94 472.42 168.81
  C 470.31 166.07 468.13 163.25 465.89 160.36
  C 465.55 159.92 465.12 159.74 464.60 159.81
  C 464.33 159.85 464.13 160.08 464.13 160.34
  C 464.09 162.68 463.07 168.08 466.60 168.06
  C 466.77 168.06 466.90 168.19 466.90 168.35
  L 466.91 168.68
  C 466.91 168.89 466.80 169.00 466.59 169.00
  L 458.28 168.99
  C 458.16 168.99 458.10 168.93 458.10 168.81
  L 458.10 168.54
  C 458.09 168.35 458.23 168.19 458.42 168.16
  C 459.95 167.93 460.72 166.96 460.73 165.25
  C 460.76 160.66 460.75 156.08 460.71 151.49
  C 460.70 150.46 460.01 149.89 458.62 149.77
  C 458.40 149.75 458.22 149.59 458.17 149.38
  L 458.09 149.01
  C 458.06 148.90 458.10 148.85 458.21 148.84
  C 462.56 148.66 475.34 146.98 474.34 154.93
  C 474.06 157.20 472.62 158.61 470.01 159.15
  C 469.66 159.22 469.58 159.41 469.77 159.71
  Z
  M 464.12 151.05
  L 464.14 157.49
  C 464.14 157.89 464.47 158.21 464.86 158.21
  L 465.76 158.21
  C 468.49 158.20 470.70 156.50 470.69 154.42
  L 470.69 154.08
  C 470.68 152.00 468.46 150.32 465.74 150.33
  L 464.84 150.33
  C 464.44 150.33 464.12 150.65 464.12 151.05
  Z"
/>
<path fill="#616160" d="
  M 501.86 162.15
  C 502.16 162.53 502.31 162.48 502.31 161.99
  L 502.26 152.00
  C 502.26 151.49 502.06 150.98 501.70 150.57
  C 501.13 149.93 500.01 150.03 499.58 149.52
  C 499.52 149.45 499.47 149.37 499.43 149.28
  C 499.33 149.05 499.50 148.79 499.75 148.79
  L 506.42 148.79
  C 506.67 148.79 506.82 148.91 506.88 149.16
  C 506.91 149.29 506.90 149.40 506.85 149.51
  C 506.80 149.65 506.68 149.75 506.54 149.77
  C 504.88 150.04 504.04 151.20 504.03 153.25
  C 504.01 158.58 504.00 163.61 504.01 168.34
  C 504.01 169.73 503.57 169.88 502.70 168.80
  L 490.94 154.24
  C 490.49 153.69 490.27 153.77 490.26 154.48
  C 490.21 158.01 490.24 161.68 490.37 165.49
  C 490.42 167.03 491.20 167.89 492.69 168.08
  C 492.88 168.10 493.03 168.26 493.04 168.46
  C 493.04 168.55 493.04 168.64 493.04 168.73
  C 493.05 168.91 492.96 169.00 492.78 169.00
  L 486.26 169.00
  C 485.51 169.00 485.41 168.74 485.95 168.22
  C 486.21 167.97 486.54 167.81 486.95 167.76
  C 487.80 167.63 488.44 166.91 488.46 166.05
  C 488.55 161.56 488.57 157.02 488.53 152.45
  C 488.52 150.75 487.46 149.96 485.93 149.67
  C 485.74 149.64 485.64 149.52 485.61 149.33
  L 485.57 149.05
  C 485.55 148.90 485.61 148.83 485.76 148.83
  L 490.64 148.77
  C 490.97 148.76 491.25 148.89 491.46 149.15
  L 501.86 162.15
  Z"
/>
<path fill="#616160" d="
  M 522.32 167.76
  L 524.05 168.16
  C 524.14 168.17 524.19 168.22 524.22 168.31
  L 524.33 168.67
  C 524.40 168.90 524.31 169.01 524.08 169.01
  L 515.31 168.99
  C 515.23 168.98 515.17 168.93 515.15 168.86
  L 515.08 168.56
  C 515.03 168.35 515.12 168.24 515.33 168.22
  C 516.99 168.07 517.94 167.41 517.96 165.61
  C 518.06 158.48 518.06 153.86 517.96 151.76
  C 517.89 150.39 517.11 149.76 515.60 149.89
  C 515.39 149.91 515.19 149.75 515.16 149.54
  L 515.12 149.24
  C 515.07 148.93 515.20 148.78 515.51 148.78
  L 524.03 148.79
  C 524.20 148.79 524.28 148.87 524.27 149.04
  L 524.24 149.47
  C 524.23 149.62 524.14 149.71 523.99 149.72
  C 523.21 149.78 522.51 150.01 521.89 150.42
  C 521.56 150.63 521.39 150.94 521.39 151.33
  L 521.39 166.58
  C 521.39 167.14 521.77 167.63 522.32 167.76
  Z"
/>
<path fill="#616160" d="
  M 543.03 151.10
  C 542.98 155.98 542.95 160.87 542.96 165.76
  C 542.97 167.33 543.84 168.09 545.59 168.05
  C 545.75 168.04 545.90 168.17 545.92 168.33
  L 545.96 168.75
  C 545.98 168.91 545.91 168.99 545.75 168.99
  L 537.03 169.00
  C 536.88 169.00 536.81 168.92 536.81 168.77
  L 536.82 168.43
  C 536.83 168.26 536.91 168.17 537.08 168.16
  C 538.66 168.06 539.49 167.43 539.56 166.27
  C 539.74 163.56 539.74 158.52 539.55 151.14
  C 539.54 150.83 539.39 150.63 539.08 150.56
  C 536.14 149.92 534.32 151.02 533.63 153.86
  C 533.54 154.22 533.32 154.36 532.96 154.29
  C 532.87 154.28 532.78 154.23 532.70 154.16
  C 532.61 154.07 532.55 153.92 532.54 153.72
  C 532.43 152.24 532.48 150.76 532.67 149.29
  C 532.72 148.95 532.91 148.78 533.25 148.78
  L 549.51 148.79
  C 549.82 148.79 549.98 148.95 549.98 149.26
  L 550.06 153.66
  C 550.07 153.94 549.94 154.13 549.68 154.22
  C 549.33 154.36 549.10 154.26 549.01 153.92
  C 548.22 151.12 546.39 149.98 543.53 150.51
  C 543.20 150.57 543.03 150.77 543.03 151.10
  Z"
/>
<path fill="#616160" d="
  M 559.87 150.07
  L 558.38 149.66
  C 558.31 149.64 558.28 149.59 558.28 149.52
  L 558.26 149.14
  C 558.25 148.90 558.37 148.78 558.61 148.78
  L 566.74 148.79
  C 566.88 148.79 566.96 148.86 566.98 148.99
  L 567.05 149.41
  C 567.08 149.65 566.98 149.77 566.74 149.78
  C 565.31 149.81 564.54 150.29 564.43 151.23
  C 564.16 153.73 563.54 163.51 565.73 166.12
  C 568.10 168.96 573.81 167.70 574.64 163.50
  C 574.96 161.89 574.99 158.40 574.74 153.01
  C 574.65 151.22 573.98 150.18 572.73 149.91
  C 572.42 149.84 572.22 149.75 572.14 149.66
  C 572.01 149.51 571.99 149.33 572.06 149.12
  C 572.15 148.89 572.31 148.78 572.55 148.78
  L 578.97 148.79
  C 579.24 148.79 579.43 149.04 579.37 149.29
  C 579.30 149.59 579.17 149.75 578.99 149.77
  C 577.34 149.94 576.53 150.94 576.56 152.75
  C 576.58 154.23 576.54 157.57 576.43 162.76
  C 576.24 172.25 561.09 170.68 561.03 163.76
  C 560.99 159.62 560.97 155.54 560.96 151.51
  C 560.96 150.84 560.51 150.25 559.87 150.07
  Z"
/>
<path fill="#616160" d="
  M 599.06 159.87
  C 601.23 163.18 603.84 166.08 606.88 168.55
  C 607.25 168.85 607.20 169.00 606.73 169.00
  L 602.55 169.00
  C 602.07 169.00 601.68 168.81 601.39 168.43
  L 594.81 159.97
  C 594.39 159.43 593.52 159.69 593.46 160.37
  C 593.28 162.35 592.43 168.01 595.68 168.03
  C 595.91 168.03 596.03 168.15 596.04 168.38
  L 596.04 168.68
  C 596.05 168.83 595.92 168.96 595.77 168.97
  C 593.10 169.03 590.44 169.02 587.81 168.95
  C 587.61 168.95 587.47 168.90 587.39 168.79
  C 587.32 168.71 587.28 168.62 587.27 168.51
  C 587.26 168.37 587.36 168.25 587.50 168.22
  C 588.25 168.07 588.93 167.78 589.54 167.34
  C 589.82 167.14 589.99 166.82 589.99 166.47
  L 590.00 151.55
  C 590.00 150.73 589.39 150.03 588.57 149.92
  C 588.16 149.87 587.81 149.74 587.51 149.53
  C 587.26 149.36 587.36 148.97 587.66 148.94
  C 592.19 148.51 596.22 148.61 599.74 149.24
  C 603.55 149.91 605.03 154.93 602.32 157.61
  C 601.54 158.38 600.37 158.79 599.26 159.23
  C 598.93 159.36 598.86 159.57 599.06 159.87
  Z
  M 593.42 151.01
  L 593.40 157.51
  C 593.40 157.89 593.71 158.20 594.09 158.20
  L 594.92 158.20
  C 597.69 158.21 599.94 156.54 599.95 154.47
  L 599.95 154.09
  C 599.96 152.02 597.72 150.33 594.94 150.32
  L 594.11 150.32
  C 593.73 150.32 593.42 150.63 593.42 151.01
  Z"
/>
<path fill="#616160" d="
  M 629.00 148.84
  L 629.00 150.81
  C 626.53 150.19 624.04 150.06 621.51 150.43
  C 621.17 150.48 621.00 150.67 621.00 151.01
  L 621.00 157.12
  C 621.00 157.53 621.21 157.72 621.62 157.71
  L 626.82 157.52
  C 627.13 157.51 627.41 157.35 627.57 157.09
  L 629.00 154.80
  L 629.00 162.03
  C 628.50 161.14 628.01 160.46 627.53 159.98
  C 626.32 158.79 623.59 159.22 622.18 159.14
  C 621.39 159.09 621.00 159.47 621.00 160.26
  L 621.00 166.21
  C 621.00 167.08 621.44 167.49 622.31 167.43
  L 629.00 166.97
  L 629.00 169.00
  L 615.16 168.99
  C 615.03 168.99 614.92 168.88 614.91 168.75
  L 614.88 168.42
  C 614.87 168.16 614.99 168.03 615.25 168.03
  C 616.70 168.02 617.45 167.34 617.50 166.00
  C 617.57 163.98 617.56 159.07 617.47 151.26
  C 617.46 150.33 616.72 149.84 615.27 149.79
  C 615.02 149.78 614.91 149.65 614.95 149.40
  L 615.01 149.02
  C 615.03 148.89 615.11 148.82 615.24 148.82
  L 629.00 148.84
  Z"
/>
</svg>
